<svg xmlns="http://www.w3.org/2000/svg" viewBox="0 0 280 280" fill="none" shape-rendering="auto" aria-hidden="true" width="320" height="320"><metadata xmlns:rdf="http://www.w3.org/1999/02/22-rdf-syntax-ns#" xmlns:xsi="http://www.w3.org/2001/XMLSchema-instance" xmlns:dc="http://purl.org/dc/elements/1.1/" xmlns:dcterms="http://purl.org/dc/terms/"><rdf:RDF><rdf:Description><dc:title>Avataaars</dc:title><dc:creator>Pablo Stanley</dc:creator><dc:source xsi:type="dcterms:URI">https://avataaars.com/</dc:source><dcterms:license xsi:type="dcterms:URI">https://avataaars.com/</dcterms:license><dc:rights>Remix of “Avataaars” (https://avataaars.com/) by “Pablo Stanley”, licensed under “Free for personal and commercial use” (https://avataaars.com/)</dc:rights></rdf:Description></rdf:RDF></metadata><defs><g id="clothes-blazerAndShirt-da46647a"><path d="M100.5 37.13c18.5 0 33.5-9.61 33.5-21.48q0-.52-.04-1.05A72 72 0 0 1 200 86.36v8.95H0v-8.95a72 72 0 0 1 67.05-71.83q-.05.55-.05 1.12c0 11.87 15 21.48 33.5 21.48" fill="#E6E6E6"/><path d="M100.5 44.07c21.89 0 39.63-12.05 39.63-26.92q0-.9-.08-1.79-3-.51-6.1-.76.06.52.05 1.05c0 11.87-15 21.48-33.5 21.48S67 27.52 67 15.65q0-.57.05-1.12-3.08.2-6.08.67-.1.97-.1 1.95c0 14.87 17.74 26.92 39.63 26.92" fill="black" fill-opacity=".16"/><path d="M68.78 14.43 69 13.3c-2.96.06-6 1-6 1l-.42.67A72 72 0 0 0 0 86.36v8.95h74s-10.7-51.56-5.24-80.8zM126 95.3s11-53 5-82c2.96.06 6 1 6 1l.42.67A72 72 0 0 1 200 86.36v8.95z" fill="#92a1c6"/><path fill-rule="evenodd" clip-rule="evenodd" d="M69 13.3c-6 29 5 82 5 82H58l-14-36 6-9-6-6 19-30s3.04-.94 6-1m62 0c6 29-5 82-5 82h16l14-36-6-9 6-6-19-30s-3.04-.94-6-1" fill="black" fill-opacity=".15"/><path d="m151.42 71.07.87-2.24 6.27-4.7a4 4 0 0 1 4.85.05l6.6 5.13z" fill="#E6E6E6"/></g><g id="mouth-smile-da46647a"><path fill-rule="evenodd" clip-rule="evenodd" d="M27.12 9.13a19 19 0 0 0 37.77-.09c.08-.77-.77-2.04-1.85-2.04H29.1C28 7 27 8.18 27.12 9.13" fill="black" fill-opacity=".7"/><path d="M62 7H31a5 5 0 0 0 5 5h21a5 5 0 0 0 5-5" fill="white"/><path d="M58.7 21.14A11 11 0 0 0 46 19.2a10.95 10.95 0 0 0-12.7 1.94A19 19 0 0 0 46 26c4.88 0 9.33-1.84 12.7-4.86" fill="#FF4F6D"/></g><g id="nose-default-da46647a"><path fill-rule="evenodd" clip-rule="evenodd" d="M0 0c0 4.42 5.37 8 12 8s12-3.58 12-8" fill="black" fill-opacity=".16"/></g><g id="eyes-side-da46647a"><path d="M13 8c-4.84 0-9 2.65-10.84 6.45-.54 1.1.39 1.85 1.28 1.12a15 15 0 0 1 9.8-3.22 6 6 0 1 0 10.7 2.8 2 2 0 0 0-.12-.74l-.15-.38a6 6 0 0 0-1.64-2.48C19.9 9.32 16.5 8 13 8m58 0c-4.84 0-9 2.65-10.84 6.45-.54 1.1.39 1.85 1.28 1.12a15 15 0 0 1 9.8-3.22 6 6 0 1 0 10.7 2.8 2 2 0 0 0-.12-.74l-.15-.38a6 6 0 0 0-1.64-2.48C77.9 9.32 74.5 8 71 8" fill="black" fill-opacity=".6"/></g><g id="eyebrows-default-da46647a"><path d="M7.77 17.16c3.91-5.51 14.64-8.6 23.89-6.33a2 2 0 0 0 .95-3.88c-10.73-2.64-23.16.94-28.1 7.9a2 2 0 0 0 3.3 2.3m80.73.01c-3.9-5.5-14.64-8.6-23.9-6.33a2 2 0 0 1-.94-3.88c10.74-2.64 23.17.94 28.1 7.9a2 2 0 0 1-3.25 2.3" fill="black" fill-opacity=".6"/></g><g id="top-shortWaved-da46647a"><path fill-rule="evenodd" clip-rule="evenodd" d="M182.68 38.95c5.4-4.95 6.7-14.99 3.64-21.5-3.77-8-11.42-9-18.75-5.48-6.9 3.31-13.06 4.42-20.62 2.81-7.26-1.54-14.14-4.26-21.65-4.7-12.32-.74-24.3 3.83-32.7 13.05a36 36 0 0 0-4.11 5.8c-.98 1.63-2.08 3.38-2.5 5.26-.2.9.18 3.1-.27 3.83-.48.8-2.3 1.52-3.07 2.1a25 25 0 0 0-4.18 4.05c-2.66 3.22-4.13 6.59-5.37 10.57-4.1 13.25-4.45 29 .86 42 .7 1.74 2.9 5.36 4.18 1.64.26-.73-.33-3.19-.33-3.93 0-2.72 1.5-20.73 8.05-30.82 2.13-3.28 11.97-15.58 13.98-15.68 1.07 1.7 11.88 12.51 39.94 11.24 12.66-.59 22.4-6.28 24.74-8.74 1.03 5.53 13 13.81 14.82 17.22 5.26 9.85 6.43 30.3 8.44 30.27s3.45-5.24 3.87-6.23c3.07-7.38 3.6-16.64 3.26-24.56-.42-10.2-4.63-21.23-12.23-28.22" fill="#4a312c"/></g><clipPath id="clip-da46647a"><rect width="280" height="280" rx="0" ry="0"/></clipPath></defs><g clip-path="url(#clip-da46647a)"><path d="M140 36a56 56 0 0 0-56 56v6.17A12 12 0 0 0 74 110v14a12 12 0 0 0 10.3 11.88A56 56 0 0 0 116 180.6V199h-4a72 72 0 0 0-72 72v9h200v-9a72 72 0 0 0-72-72h-4v-18.38a56 56 0 0 0 31.7-44.73A12 12 0 0 0 206 124v-14a12 12 0 0 0-10-11.83V92a56 56 0 0 0-56-56" fill="#ffdbb4"/><path d="M116 180.61v8a56 56 0 0 0 24 5.39 56 56 0 0 0 24-5.39v-8a56 56 0 0 1-24 5.39 56 56 0 0 1-24-5.39" fill="black" fill-opacity=".1"/><use transform="translate(40 184.7)" href="#clothes-blazerAndShirt-da46647a"/><use transform="translate(94 140)" href="#mouth-smile-da46647a"/><use transform="translate(128 130)" href="#nose-default-da46647a"/><use transform="translate(98 98)" href="#eyes-side-da46647a"/><use transform="translate(91.86 82)" href="#eyebrows-default-da46647a"/><use transform="translate(8)" href="#top-shortWaved-da46647a"/></g></svg>