<svg xmlns="http://www.w3.org/2000/svg" viewBox="0 0 280 280" fill="none" shape-rendering="auto" aria-hidden="true" width="320" height="320"><metadata xmlns:rdf="http://www.w3.org/1999/02/22-rdf-syntax-ns#" xmlns:xsi="http://www.w3.org/2001/XMLSchema-instance" xmlns:dc="http://purl.org/dc/elements/1.1/" xmlns:dcterms="http://purl.org/dc/terms/"><rdf:RDF><rdf:Description><dc:title>Avataaars</dc:title><dc:creator>Pablo Stanley</dc:creator><dc:source xsi:type="dcterms:URI">https://avataaars.com/</dc:source><dcterms:license xsi:type="dcterms:URI">https://avataaars.com/</dcterms:license><dc:rights>Remix of “Avataaars” (https://avataaars.com/) by “Pablo Stanley”, licensed under “Free for personal and commercial use” (https://avataaars.com/)</dc:rights></rdf:Description></rdf:RDF></metadata><defs><g id="clothes-hoodie-0ced776a"><path d="M76 0C60.48 3.7 48.9 10.83 45.23 19.45A72 72 0 0 0 0 86.3v9h200v-9a72 72 0 0 0-45.23-66.86C151.1 10.83 139.52 3.69 124 0v17.3a24 24 0 1 1-48 0z" fill="#65c9ff"/><path d="M70 48.64a67 67 0 0 1-7-2.81V95.3h7zm60 0a67 67 0 0 0 7-2.81V83.8a3.5 3.5 0 1 1-7 0z" fill="#F4F4F4"/><path d="M155.62 19.8a72 72 0 0 1 10.83 5.62c-1.34 15.5-30.58 27.89-66.45 27.89 30.93 0 56-13.44 56-30q0-1.79-.38-3.52m-111.24.01a17 17 0 0 0-.38 3.5c0 16.57 25.07 30 56 30-35.87 0-65.1-12.38-66.45-27.88a72 72 0 0 1 10.83-5.63" fill="black" fill-opacity=".16"/></g><g id="mouth-smile-0ced776a"><path fill-rule="evenodd" clip-rule="evenodd" d="M27.12 9.13a19 19 0 0 0 37.77-.09c.08-.77-.77-2.04-1.85-2.04H29.1C28 7 27 8.18 27.12 9.13" fill="black" fill-opacity=".7"/><path d="M62 7H31a5 5 0 0 0 5 5h21a5 5 0 0 0 5-5" fill="white"/><path d="M58.7 21.14A11 11 0 0 0 46 19.2a10.95 10.95 0 0 0-12.7 1.94A19 19 0 0 0 46 26c4.88 0 9.33-1.84 12.7-4.86" fill="#FF4F6D"/></g><g id="nose-default-0ced776a"><path fill-rule="evenodd" clip-rule="evenodd" d="M0 0c0 4.42 5.37 8 12 8s12-3.58 12-8" fill="black" fill-opacity=".16"/></g><g id="eyes-happy-0ced776a"><path fill-rule="evenodd" clip-rule="evenodd" d="M2.16 14.45C4.01 10.65 8.16 8 13 8c4.81 0 8.96 2.63 10.82 6.4.55 1.13-.24 2.05-1.03 1.37a15 15 0 0 0-9.8-3.43c-3.73 0-7.12 1.24-9.55 3.23-.9.73-1.82-.01-1.28-1.12m58 0C62.01 10.65 66.16 8 71 8c4.81 0 8.96 2.63 10.82 6.4.55 1.13-.24 2.05-1.03 1.37a15 15 0 0 0-9.8-3.43c-3.76 0-7.15 1.24-9.58 3.23-.9.73-1.82-.01-1.28-1.12" fill="black" fill-opacity=".6"/></g><g id="eyebrows-defaultNatural-0ced776a"><path fill-rule="evenodd" clip-rule="evenodd" d="M18.68 6.15c-5.8.27-15.2 4.49-14.95 10.34 0 .15.3.24.43.1 2.75-2.97 22.31-5.96 29.2-4.37.63.14 1.11-.48.71-.93-3.42-3.82-10.17-5.4-15.39-5.15m59.91 0c5.8.27 15.2 4.49 14.95 10.34 0 .15-.29.24-.42.1-2.76-2.97-22.32-5.96-29.2-4.37-.64.14-1.12-.48-.72-.93 3.42-3.84 10.2-5.42 15.4-5.17" fill="black" fill-opacity=".6"/></g><g id="top-shortRound-0ced776a"><path fill-rule="evenodd" clip-rule="evenodd" d="M166.3 35c-20.18-11.7-40.17-9.78-55.26-5.97-15.1 3.8-24.02 14.62-31.68 30.62a68 68 0 0 0-6.34 25.83 34 34 0 0 0 1.25 10.22c.33 1.2 2.15 5.39 2.65 2 .17-1.12-.44-2.67-.5-3.86-.08-1.57 0-3.16.11-4.73q.28-4.4 1.65-8.59c1.33-3.98 3.02-8.3 5.6-11.67 6.4-8.33 17.5-8.8 26.3-13.39-.78 1.4-3.7 3.68-2.7 5.27.7 1.1 3.37.76 4.64.72 3.35-.1 6.72-.67 10.02-1.14a72 72 0 0 0 15-4.1c4.02-1.5 8.61-2.88 11.63-6.07a69 69 0 0 0 17.4 13c5.62 2.88 14.68 4.32 18.11 10.16 4.07 6.9 2.2 15.4 3.44 22.9.47 2.85 1.54 2.79 2.13.24 1-4.33 1.47-8.83 1.15-13.28-.72-10.05-4.4-36.45-24.6-48.15" fill="#2c1b18"/></g><clipPath id="clip-0ced776a"><rect width="280" height="280" rx="0" ry="0"/></clipPath></defs><g clip-path="url(#clip-0ced776a)"><path d="M140 36a56 56 0 0 0-56 56v6.17A12 12 0 0 0 74 110v14a12 12 0 0 0 10.3 11.88A56 56 0 0 0 116 180.6V199h-4a72 72 0 0 0-72 72v9h200v-9a72 72 0 0 0-72-72h-4v-18.38a56 56 0 0 0 31.7-44.73A12 12 0 0 0 206 124v-14a12 12 0 0 0-10-11.83V92a56 56 0 0 0-56-56" fill="#ae5d29"/><path d="M116 180.61v8a56 56 0 0 0 24 5.39 56 56 0 0 0 24-5.39v-8a56 56 0 0 1-24 5.39 56 56 0 0 1-24-5.39" fill="black" fill-opacity=".1"/><use transform="translate(40 184.7)" href="#clothes-hoodie-0ced776a"/><use transform="translate(94 140)" href="#mouth-smile-0ced776a"/><use transform="translate(128 130)" href="#nose-default-0ced776a"/><use transform="translate(98 98)" href="#eyes-happy-0ced776a"/><use transform="translate(91.86 82)" href="#eyebrows-defaultNatural-0ced776a"/><use transform="translate(8)" href="#top-shortRound-0ced776a"/></g></svg>